<?xml version="1.0" encoding="UTF-8"?>
<svg width="583px" height="584px" viewBox="0 0 583 584" version="1.1" xmlns="http://www.w3.org/2000/svg" xmlns:xlink="http://www.w3.org/1999/xlink">
    <!-- Generator: Sketch 60.1 (88133) - https://sketch.com -->
    <title>Group</title>
    <desc>Created with Sketch.</desc>
    <g id="Page-1" stroke="none" stroke-width="1" fill="none" fill-rule="evenodd">
        <g id="Group" fill="#354326">
            <path d="M429.10651,124.748244 L570.437229,266.077571 C578.074605,271.925718 583,281.137665 583,291.5 C583,299.223615 580.263679,306.308128 575.707577,311.836999 C574.63691,313.374037 573.416268,314.838566 572.045202,316.209632 L429.209632,459.045202 C416.712855,471.541979 396.451575,471.541979 383.954798,459.045202 C371.458021,446.548425 371.458021,426.287145 383.954798,413.790368 L474.245,323.499661 L204,323.5 C186.326888,323.5 172,309.173112 172,291.5 C172,273.826888 186.326888,259.5 204,259.5 L473.349,259.499661 L383.851676,170.003078 C371.354899,157.506301 371.354899,137.245021 383.851676,124.748244 C396.348453,112.251467 416.609733,112.251467 429.10651,124.748244 Z" id="Combined-Shape"></path>
            <path d="M206,0 C223.39697,-3.19577147e-15 237.5,14.1030304 237.5,31.5 L237.5,32.5 C237.5,47.9016006 226.446573,60.721535 211.8398,63.4597226 C210.104833,63.1569689 208.320748,63 206.5,63 L93.5,63 C76.550381,63 62.7779076,76.6029772 62.5041531,93.4873583 L62.5,94 L62.5,489 C62.5,505.949619 76.1029772,519.722092 92.9873583,519.995847 L93.5,520 L211.612436,520.000167 C226.331824,522.64579 237.5,535.518662 237.5,551 L237.5,552 C237.5,569.39697 223.39697,583.5 206,583.5 L205.501,583.5 L205.501304,583.964734 C204.670399,583.988192 203.836578,584 203,584 L87,584 C38.9512268,584 5.88427763e-15,545.048773 0,497 L0,87 C-5.88427763e-15,38.9512268 38.9512268,8.82641645e-15 87,0 L206,0 Z" id="Combined-Shape"></path>
        </g>
    </g>
</svg>